<svg
  xmlns="http://www.w3.org/2000/svg"
  version="1.1"
  id="Layer_1"
  x="0"
  y="0"
  viewBox="0 0 612.4 504.9"
  xml:space="preserve"
  class="mw-100 style-svg replaced-svg svg-replaced-0"
>
    <style type="text/css">.st-white{fill:#000000}.st-red{fill:#ea4236}</style>
    <path
    class="st-white"
    d="M0 0v128.7h147.6V86.8H58.3V0zm240 0l-62 128.8h59l8-17.8h68.7l8.1 17.8h64.7L320.7 0H240zm39 35.8l18.3 39.6H261l18-39.6zM418.3 0h97.9C590.1 0 611 28.9 611 60.9v5.4c0 30.5-17 62.5-94.8 62.5h-97.9V0zm58.3 91.5h30.8c39.6 0 43.1-18 43.1-27.2v-1c0-9.2-3.6-26.1-43.1-26.1h-30.8v54.3zM305.1 211c2-1.4 3.1-3.9 3.1-7.5 0-3.5-1.1-5.9-3.3-7.1-2.2-1.2-4.9-1.9-8.1-1.9h-22.6v18.7h22.7c3.4-.1 6.1-.8 8.2-2.2m-6 13.9h-25V245h24.7c1.6 0 3.1-.2 4.5-.5 1.4-.4 2.6-.9 3.7-1.7 1-.8 1.8-1.8 2.5-3 .6-1.2.9-2.7.9-4.5 0-3.6-1-6.2-3.1-7.9-2.1-1.6-4.8-2.5-8.2-2.5M92.8 211c2-1.4 3.1-3.9 3.1-7.5 0-3.5-1.1-5.9-3.3-7.1-2.2-1.2-4.9-1.9-8.1-1.9H61.9v18.7h22.7c3.4-.1 6.1-.8 8.2-2.2m-6 13.9h-25V245h24.7c1.6 0 3.1-.2 4.5-.5 1.4-.4 2.6-.9 3.7-1.7 1-.8 1.8-1.8 2.5-3 .6-1.2.9-2.7.9-4.5 0-3.6-1-6.2-3.1-7.9-2.1-1.6-4.8-2.5-8.2-2.5"
  />
    <path
    class="st-white"
    d="M.1 286.3h612.3V153.7H.1v132.6zm110.1-40.8c-1.2 2.6-2.9 4.8-5 6.5-2.2 1.7-4.8 3-7.8 3.7-3 .8-6.4 1.2-10.1 1.2H48.7v-74.3h36.5c3.2 0 6.3.4 9.3 1.2 3 .8 5.6 2 7.8 3.7 2.3 1.7 4.1 3.8 5.4 6.5 1.3 2.6 2 5.8 2 9.6 0 4.2-1 7.5-3.1 10-2.1 2.4-5 4.2-8.7 5.3 4.3 1.1 7.8 2.9 10.3 5.6S112 231 112 236c0 3.6-.6 6.8-1.8 9.5m81.2 11.4h-13.5v-74.3h13.5v74.3zm131.1-11.4c-1.2 2.6-2.9 4.8-5 6.5-2.2 1.7-4.8 3-7.8 3.7-3 .8-6.4 1.2-10.1 1.2H261v-74.3h36.4c3.2 0 6.3.4 9.3 1.2 3 .8 5.6 2 7.8 3.7 2.3 1.7 4.1 3.8 5.4 6.5 1.3 2.6 2 5.8 2 9.6 0 4.2-1 7.5-3.1 10-2.1 2.4-5 4.2-8.7 5.3 4.3 1.1 7.8 2.9 10.3 5.6s3.8 6.5 3.8 11.5c.1 3.6-.5 6.8-1.7 9.5m121.1 11.4h-54.7v-74.3h13.5v62.1h41.2v12.2zm122.7-62.1h-45.7V213h37.2v11.9h-37.2v19.7h45.6v12.2H507v-74.3h59.3v12.3z"
  />
    <path
    class="st-red"
    d="M147.7 413.9c-1.9-1.9-16.7-13.8-18.7-15.2-1-.7-2.3-.8-3.4-.4-2.1.7-30.1 13.3-32.6 14.4-5.2 2.2-16.2 6.3-24.8 8.5-.4.1-.9 0-1.3-.2-1.3-.6-2-1.9-2.1-3.2 0-.8 0-1.5.1-2.3.2-2.2.6-4.5 1.2-6.6.1-.4.2-.8.4-1.2 2.6-8.4 6.4-16.2 11.4-23.4 28.4-36.6 40.8-42 46.1-46.4 5.8-4 11.7-8 17.8-11.3 1-.5 2.1-.6 3.1-.1l.6.2c.4.6-6.4 12.2-20.5 25.9-.3.3-.3.9-.4 1.4.7 1.7 2.4 2.5 3.6 3.7 2 2.2 4.7 3.7 7.4 4.8 3.4 1.3 5.6 4.1 7.9 6.9.3.4 1 .3 1.6.5 1.5-.7 2.5-1.9 3.4-3.2 1.5-2.2 3.2-4.2 4.9-6.2 1.7-2 3.2-4.2 4.8-6.3 3.2-4.2 6.3-8.4 9-13 1.7-3 3.1-6 4.2-9.3.1-.2.1-.5.2-.7 1.2-4-.2-8.6-3.8-10.8h-.1c-2.3-1.4-4.2-3.2-6.2-4.9-3.6-3.1-7.2-6.1-11-9-.4-.3-1-.7-1.6-1.1-2.4-1.5-5.4-1.9-8.2-1.2-7.2 2-21.6 7.7-36.7 18.6-19.1 14.8-36.8 34-37.9 35.3-2.9 3.8-5.7 7.7-8.5 11.6-1.1 1.5-2.1 3-3 4.6-5.2 8.8-7 14-8.1 17-1.2 3.4-1.9 6.9-2 10.5 0 1.6 0 3.3.1 5 .1 2.3.7 4.5 1.7 6.5.8 1.7 2.1 3.1 3.6 4.1 4.2 2.9 14.7 10 21.5 14.3 3.4 2.2 7.2 3.7 11.2 4.5h.1c.9.2 1.9.2 2.8 0l3-.6c3.1-.6 6.2-1.5 9.1-2.7h.1c1-.4 2-.4 3 0 .4.2.6.6.5 1.1-.3 1.1-.9 2.2-1.7 3.1-1.1 1.2-2.1 2.4-3.1 3.8-4.3 6.1-8.9 12-13 18.2-2.5 3.8-4.5 7.8-6.3 11.9-1.7 3.9-2.8 8-2.5 12.3.1.7.1 1.5.2 2.2.4 1.9.8 3.4 2.2 4.4 4.3 3.1 16 11.4 19.1 13.3.9.6 1.9 1 2.8 1.5.2.1 1.3.6 2-.2.5-.4.2-1.3-.1-1.5-2.1-1.6-4.5-2.8-5.5-5.5-.3-2.1-.3-4.2.5-6.2.5-1.3 1-2.6 1.5-4 1.1-3.1 2.5-6.1 4.1-9 1.5-2.5 2.8-5.1 4.5-7.5 3-4 5.3-8.5 8.5-12.3 3.4-4 7.3-10.4 17.8-21.2 3-3 5.3-6.6 8.2-9.6 2.9-3 5.5-6.2 7.7-9.8.4-.6.5-1.3.4-2 0-.9-.3-1.5-.8-2z"
  />
    <path
    class="st-red"
    d="M560.8 367.8l-57.6 10.1c-9.4.8-5.4-1.5-5.4-1.5s21.1-8.3 46-28.2c1.8-1.4 3.1-3.4 4.6-5.1 1.8-2 3.5-4.3 4.9-6.6 2.3-4 3.3-5.6 4.4-10.8.3-1.2.4-2.4.4-3.6v-4.4c0-1.4-.7-2.9-1.3-4.3-.1-.3-.2-.5-.3-.8-1-2.5-2.5-4.8-4.3-6.8-6.7-7.3-12.8-14.7-19.9-21.1-.7-.7-4.4-4.1-10.1-4.6-20.7-1.7-32.1 9-38.3 15.5-1.1 1.2-2.3 2.3-3.4 3.5-2.3 2.3-4.6 4.6-7.1 6.7-.1.1-.3.2-.4.3-1 .5-2.3.3-3.2-.5-2.6-2.2-4.8-4.9-7.3-7.1-.7-.6-1.6-.8-2.4-.7-.3 0-.6.2-.8.4-5.1 4.5-53.1 46.4-55.4 48.7-2.7 2.6-5.7 4.9-8.7 6.9-.2.1-.5.1-.7 0s-.4-.4-.5-.6c-.3-.8-.2-1.6.1-2.3 1.9-5.2 13.6-23.1 16.2-29.3.2-.5.1-1-.2-1.4-2.4-2.8-11.3-11.1-15.8-14.8-1.3-1.1-3.1-.9-4.2.4-4.9 5.9-17.7 21.8-19.2 23.3-8 8.1-14.7 17.7-22.8 25.7-.4.4-.8.7-1.3.9s-3.5.8-2.9-2c.2-.7.4-1.4.8-2.1 3.3-6.4 6.1-12.2 9-18.5.9-2 .6-4.3-.9-6-4.6-5-10.1-9.3-15.2-13.8-1.1-1-2.5-1.6-4-1.5-1.1.1-2.1.3-3.2.8-2.2.9-4.4 1.8-6.6 2.6-9.9 3.7-20.1 6.3-30.1 9.5-5.3 1.7-10.7 2.6-16 4.1-1.5.4-3.1.2-4.8.3-1.9-1.5-3.7-3-5.4-4.4-1.6-.5-2.8-.1-3.7 1-1.4 1.6-2.5 3.4-3.9 5-2 2.4-4.1 4.8-6.2 7.2-.3.3-1 .3-1.5.5-2.5-1-4.6-2.5-6.5-4.4-2-2.1-4.5-3.7-7.2-4.7-1.6-.3-3.2 0-4.7.7-2.4 1.1-4.9 2-7.3 3.1-3.9 1.7-7.6 3.6-11.2 5.9-5.4 3.3-10.5 6.3-16 10.1-1.7 1.2-3.5 2.4-5.1 3.7-2.4 2-4.9 3.5-7.4 5.4-1.1.8.1-2.4.5-3.4.6-1.4 1.6-2.5-.8-4.1-3.1-2.1-9.5-8.7-12.3-5.5-2 2.3-6.1 10.5-8.1 14.6-.2.3-.3.6-.4.9-3 6.8-6.8 13.1-10.7 19.4-3 4.7-5.3 9.7-6.9 15.1-.3 1 .4 1.6.8 2.2.5.6 1.1 1.3 1.7 1.7 5.8 4.2 11.5 8.3 17.2 12.4 1.3.6 2.3-.3 2.8-1.1 3.8-6.1 8.3-11.6 13.5-16.5 2.9-2.7 5.5-5.7 8.6-8.2 2.5-2 4.8-4.1 7.3-6.1 2.6-2.2 5.3-4.4 8-6.4 3.3-2.6 6.7-5.1 10.2-7.5 6.5-4.5 13.5-8.3 20.2-12.5.7-.4 1.4-.9 2.3-1.2s1.7 1.1 1.1 2.3c-2.3 4-4.4 7.8-6.6 11.8-.5.9-.9 1.9-1.2 2.9-.8 2.5-1.3 4.5-1.4 6.4-.3 4.5.4 7.4 1.1 9.2.4 1.1 1.1 2.1 1.9 3 2.7 2.7 5.6 4.9 8.5 7.4 3.5 3.1 6.6 5.2 9.9 7.8 2.9 2.3 9.7 3.8 16.2 2.5 2.1-.4 4.1-1.1 5.9-2.2 3.2-2 6.5-4 9.1-6.8 1.3-1.4 2.6-2.8 4-4.2 5.9-5.4 10.7-11.9 14.2-19.1.2-.5.5-1 .7-1.5 1.1-2.2 2-4.5 2.4-6.9.3-1.9.1-3.8-.4-5.6l-.3-.9c-1.1-3.6-3.6-6.6-6.7-8.7-.5-.4-1.7-1.4-1.5-2.7.1-.5.2-.9.9-1.2 1.8-.4 3.6-.8 5.4-1.3 3.8-.9 7.7-1.9 11.4-3.3 1.5-.6 3.1-.8 4.7-.7.7 0 2.4.3 2.2 1-.5 1.3-2.1 4.4-3.1 6.6-1.7 3.9-10.7 21.8-5.7 26.9 2.9 2.9 10.2 10.6 20 17.6 8.8 4.6 22.7-15.6 32.3-20.8.4-.2.8-.1 1.1.2 4.2 3.8 8.3 7.6 12.3 11.4 2.7 2.6 5.7 5.1 8.9 7.3 1 .7 2.3.4 3.4-.1 8.7-3.9 26.3-20.9 29.6-23.5.2-.2.5-.3.7-.2s.4.4.5.6c0 .3 0 .6-.1.8-31.9 58.2-32.8 70.3-32.9 74.4v.4c0 2.1.7 4.1 2.1 5.5 3.8 3.9 8 7.7 12.1 11.6 1.1 1.1 2.5 1.9 4.1 2.3.4-.3 1-.6 1.2-1 1.9-5.3 19.2-61.5 37-79 1.2-1.2 3.1-1.5 4.7-.7.1.1.2.1.3.2 1.3.7 2.4 1.7 3.3 2.9 2 2.7 4.2 5.3 6.8 7.7 1.6 1.5 3.7 2.3 5.9 2.2 1.7-.1 3.4-.3 5.1-.9 2.1-.7 4.1-1.3 6.1-2 10.4-2.9 71.9-18.6 82-21 9.8-2.8 11.3-5.1.9-2.8zm-273.9-16.3c-.2 1.9-1.2 4.2-1.4 4.7-2 4.7-2.8 6.6-6 10.9-1.4 1.9-4 4.8-5.6 6.5-4 4.1-8 8.2-12.4 12-4.9 3.3-5.6 3.4-6.9 3.1-.6-.5-.7-1-.7-1.5 0-1 .1-2.1.4-3.1 2.5-8.7 5.9-14.5 10.7-21 3-4 5.5-7 8.5-11 2.4-3.1 8.3-7.6 8.4-7.7 1.2-1 2.2-1.2 3.4-.7.9.4 1.4 1.3 1.5 2.4.4 1.9.3 3.9.1 5.4zm175 13.9c-1.1.3-3.1.6-3.8-.4-.2-.4 0-1 .3-1.4 1.9-2.8 41.8-57.2 64.4-64.1 2.5-.8 5-1.5 7.6-2 2.1-.4 4.2-.4 6.2-.1 2.3.7 3.7 2.1 4.4 4.3.2 1.5.1 3-.3 4.6-10.2 36.2-70.2 56.5-78.8 59.1zm43 12.2c.1 0 .2 0 .3-.1-.1.1-.2.1-.3.1z"
  />
</svg>
